<?xml version="1.0" encoding="UTF-8"?>
<svg width="500px" height="600px" viewBox="0 0 500 600" version="1.1" xmlns="http://www.w3.org/2000/svg" xmlns:xlink="http://www.w3.org/1999/xlink">
    <!-- Generator: Sketch 50.2 (55047) - http://www.bohemiancoding.com/sketch -->
    <title>hexagon</title>
    <desc>Created with Sketch.</desc>
    <defs></defs>
    <g id="Page-1" stroke="none" stroke-width="1" fill="none" fill-rule="evenodd">
        <g id="hexagon">
            <path d="M250,0 L500,150 L500,450 L250,600 L0,450 L5.54029424e-14,150 L250,0 Z M250.243665,113.513514 L94.5419103,207.010135 L94.5419103,394.003378 L250.243665,487.5 L405.945419,394.003378 L405.945419,207.010135 L250.243665,113.513514 Z" id="Combined-Shape" fill="#29B4CE"></path>
            <path d="M125.073099,75 L250,0 L250,113.823649 L125.073099,75 Z M499.848928,450.005068 L405.048733,393.086149 L499.848928,299.994932 L499.848928,450.005068 Z" id="Combined-Shape" fill="#6FE3EA"></path>
            <path d="M0.150097466,450.005068 L0.150097466,299.994932 L94.9463938,393.086149 L0.150097466,450.005068 Z M250,0 L377.655945,76.6388514 L250,113.823649 L250,0 Z M250,486.172297 L327.52924,439.626689 L377.655945,523.353041 L250,486.172297 Z" id="Combined-Shape" fill="#1E7E8E"></path>
            <path d="M0,150 L124.923002,75 L94.7962963,206.908784 L0,150 Z M404.898635,206.908784 L499.69883,150 L499.69883,299.994932 L404.898635,206.908784 Z M499.69883,450.005068 L377.505848,523.353041 L404.898635,393.086149 L499.69883,450.005068 Z M94.7962963,393.086149 L172.325536,439.626689 L124.923002,525 L94.7962963,393.086149 Z" id="Combined-Shape" fill="#29C1D3"></path>
            <path d="M0.150097466,150 L94.9463938,206.908784 L0.150097466,299.994932 L0.150097466,150 Z M377.655945,76.6413851 L499.848928,150 L405.048733,206.908784 L377.655945,76.6413851 Z M172.475634,439.626689 L250,486.172297 L125.073099,525 L172.475634,439.626689 Z" id="Combined-Shape" fill="#29B4CE"></path>
            <path d="M94.9463938,206.908784 L125.073099,75 L172.475634,160.368243 L94.9463938,206.908784 Z M405.048733,206.908784 L499.848928,299.994932 L405.048733,299.994932 L405.048733,206.908784 Z" id="Combined-Shape" fill="#2FCBD9"></path>
            <path d="M125.073099,75 L250,113.823649 L172.475634,160.368243 L125.073099,75 Z M0.150097466,450.005068 L94.9463938,393.086149 L125.073099,525 L0.150097466,450.005068 Z M499.848928,299.994932 L405.048733,393.086149 L405.048733,299.994932 L499.848928,299.994932 Z" id="Combined-Shape" fill="#3CD9E2"></path>
            <path d="M0.150097466,299.994932 L94.9463938,299.994932 L94.9463938,393.086149 L0.150097466,299.994932 Z M250,599.989865 L250,486.172297 L377.655945,523.353041 L250,599.989865 Z M377.655945,76.6388514 L377.655945,76.6413851 L327.52924,160.368243 L250,113.823649 L377.655945,76.6388514 Z" id="Combined-Shape" fill="#2190A5"></path>
            <path d="M94.9463938,206.908784 L94.9463938,299.994932 L0.150097466,299.994932 L94.9463938,206.908784 Z M327.52924,439.626689 L405.048733,393.086149 L377.655945,523.353041 L327.52924,439.626689 Z M250,486.172297 L250,599.989865 L125.073099,525 L250,486.172297 Z M377.655945,76.6413851 L405.048733,206.908784 L327.52924,160.368243 L377.655945,76.6413851 Z" id="Combined-Shape" fill="#24A4C1"></path>
        </g>
    </g>
</svg>