<svg width="300px" height="360px" viewBox="0 0 300 360" version="1.1" xmlns="http://www.w3.org/2000/svg" xmlns:xlink="http://www.w3.org/1999/xlink">
    <g class="svg-logo">
        <path fill="#6FE3EA" d="M75.0438596,45 L150,0 L150,68.2941892 L75.0438596,45 Z M299.909357,270.003041 L243.02924,235.851689 L299.909357,179.996959 L299.909357,270.003041 Z"/>
        <path fill="#3CD9E2" d="M75.0438596,45 L150,68.2941892 L103.48538,96.2209459 L75.0438596,45 Z M0.0900584795,270.003041 L56.9678363,235.851689 L75.0438596,315 L0.0900584795,270.003041 Z M299.909357,179.996959 L243.02924,235.851689 L243.02924,179.996959 L299.909357,179.996959 Z"/>
        <path fill="#2FCBD9" d="M56.9678363,124.14527 L75.0438596,45 L103.48538,96.2209459 L56.9678363,124.14527 Z M243.02924,124.14527 L299.909357,179.996959 L243.02924,179.996959 L243.02924,124.14527 Z"/>
        <path fill="#29C1D3" d="M0,90 L74.9538012,45 L56.8777778,124.14527 L0,90 Z M242.939181,124.14527 L299.819298,90 L299.819298,179.996959 L242.939181,124.14527 Z M299.819298,270.003041 L226.503509,314.011824 L242.939181,235.851689 L299.819298,270.003041 Z M56.8777778,235.851689 L103.395322,263.776014 L74.9538012,315 L56.8777778,235.851689 Z"/>
        <path fill="#29B4CE" d="M0.0900584795,90 L56.9678363,124.14527 L0.0900584795,179.996959 L0.0900584795,90 Z M226.593567,45.9848311 L299.909357,90 L243.02924,124.14527 L226.593567,45.9848311 Z M103.48538,263.776014 L150,291.703378 L75.0438596,315 L103.48538,263.776014 Z"/>
        <path fill="#24A4C1" d="M56.9678363,124.14527 L56.9678363,179.996959 L0.0900584795,179.996959 L56.9678363,124.14527 Z M196.517544,263.776014 L243.02924,235.851689 L226.593567,314.011824 L196.517544,263.776014 Z M150,291.703378 L150,359.993919 L75.0438596,315 L150,291.703378 Z M226.593567,45.9848311 L243.02924,124.14527 L196.517544,96.2209459 L226.593567,45.9848311 Z"/>
        <path fill="#2190A5" d="M0.0900584795,179.996959 L56.9678363,179.996959 L56.9678363,235.851689 L0.0900584795,179.996959 Z M150,359.993919 L150,291.703378 L226.593567,314.011824 L150,359.993919 Z M226.593567,45.9833108 L226.593567,45.9848311 L196.517544,96.2209459 L150,68.2941892 L226.593567,45.9833108 Z"/>
        <path fill="#1E7E8E" d="M0.0900584795,270.003041 L0.0900584795,179.996959 L56.9678363,235.851689 L0.0900584795,270.003041 Z M150,0 L226.593567,45.9833108 L150,68.2941892 L150,0 Z M150,291.703378 L196.517544,263.776014 L226.593567,314.011824 L150,291.703378 Z"/>
    </g>
</svg>
